<?xml version="1.0" encoding="utf-8"?>
<!-- Generator: Adobe Illustrator 23.0.2, SVG Export Plug-In . SVG Version: 6.00 Build 0)  -->
<svg version="1.1" id="レイヤー_1" xmlns="http://www.w3.org/2000/svg" xmlns:xlink="http://www.w3.org/1999/xlink" x="0px"
	 y="0px" viewBox="0 0 600 600" style="enable-background:new 0 0 600 600;" xml:space="preserve">
<style type="text/css">
	.st0{font-family:'OCRB';}
	.st1{font-size:110px;}
</style>
<g>
	<path d="M524.9,187.2c-76.9-39-153.8-78-230.7-117l-0.5,0.6l-15.8,12.1c76.9,39,153.7,78,230.6,116.9l13.4-10.2l-13.4,10.2
		c0,56.1,0,112.3,0,168.4l16.5-12.6C524.9,299.4,524.9,243.3,524.9,187.2L524.9,187.2z"/>
	<path d="M129.2,196.3c76.9,39,153.7,77.9,230.6,116.9l14.1-10.8l-14.1,10.8c0,56.1,0,112.2,0,168.4l33-25.2c0-56.2,0-112.3,0-168.4
		l0,0c-76.9-39-153.8-78-230.6-116.9L129.2,196.3z"/>
	<path d="M220,127l-33,25.2c76.9,39,153.7,77.9,230.6,116.9l0,0c0,56.1,0,112.2,0,168.4l33-25.2c0-56.2,0-112.3,0-168.4l-32.7,25
		l32.7-25C373.7,204.9,296.8,165.9,220,127z"/>
	<path d="M269.6,89.2l-24.8,18.9c76.9,39,153.7,78,230.6,116.9l0,0c0,56.1,0,112.2,0,168.4l24.8-18.9c0-56.1,0-112.3,0-168.4
		l-10.5,8l10.5-8C423.2,167.1,346.4,128.1,269.6,89.2z"/>
	<path d="M112.7,208.9c76.9,39,153.7,77.9,230.6,116.9l7.7-5.9l-7.7,5.9c0,56.1,0,112.2,0,168.4l8.3-6.3c0-56.1,0-112.2,0-168.4l0,0
		c-76.9-39-153.7-77.9-230.6-116.9L112.7,208.9z"/>
	<path d="M170.5,164.8c76.9,39,153.7,77.9,230.6,116.9l3.1-2.4l-3.1,2.4c0,56.1,0,112.2,0,168.4l8.3-6.3c0-56.1,0-112.2,0-168.4l0,0
		c-76.9-39-153.7-77.9-230.6-116.9L170.5,164.8z"/>
	<path d="M228.3,120.7c76.9,39,153.7,77.9,230.6,116.9l0,0c0,56.1,0,112.2,0,168.4l8.3-6.3c0-56.1,0-112.2,0-168.4l0,0
		c-76.9-39-153.7-77.9-230.6-116.9L228.3,120.7z"/>
	<path d="M79.7,234.1L79,403.4l231.3,115.9l16.5-12.6c0-56.1,0-112.2,0-168.4l0,0c-76.8-39-153.7-77.9-230.6-116.9L79.7,234.1z"/>
</g>
<text transform="matrix(1 0 0 1 310.8125 593.9473)" class="st0 st1">1</text>
<text transform="matrix(1 0 0 1 367.2126 553.6143)" class="st0 st1">3</text>
<text transform="matrix(1 0 0 1 423.6126 513.2803)" class="st0 st1">3</text>
<text transform="matrix(1 0 0 1 480.0127 472.9472)" class="st0 st1">7</text>
</svg>
