<?xml version="1.0" encoding="utf-8"?>
<!-- Generator: Adobe Illustrator 18.1.1, SVG Export Plug-In . SVG Version: 6.00 Build 0)  -->
<!DOCTYPE svg PUBLIC "-//W3C//DTD SVG 1.1//EN" "http://www.w3.org/Graphics/SVG/1.1/DTD/svg11.dtd">
<svg version="1.1" id="レイヤー_1" xmlns="http://www.w3.org/2000/svg" xmlns:xlink="http://www.w3.org/1999/xlink" x="0px"
	 y="0px" viewBox="22 -95 544 544" enable-background="new 22 -95 544 544" xml:space="preserve">
<polygon fill="#DBE300" points="146.2,24.6 426.3,165.2 426.3,369.6 455,347.7 455,143.7 174.6,2.8 "/>
<polygon fill="#9100AA" points="398.7,186.7 118.5,45.8 85.5,71 85.5,275.4 365.4,416.1 398.7,390.7 "/>
<polygon fill="#FF2B22" points="229.5,-39.1 202.4,-18.5 482.6,122.4 482.6,326.4 509.5,306 509.5,101.6 "/>
<polygon fill="#008703" points="118.5,45.8 398.7,186.7 398.7,390.7 426.3,369.6 426.3,165.2 146.3,24.6 "/>
<polygon fill="#DA9600" points="482.6,122.4 202.5,-18.4 174.7,2.9 455,143.7 455,347.6 509.5,306 482.6,326.4 "/>
<polygon fill="#001AAF" points="118.5,45.8 86.1,70.6 366,211.3 366,415.4 365.2,416 365.4,416.1 398.7,390.7 398.7,186.7 "/>
</svg>
