<?xml version="1.0" encoding="utf-8"?>
<!-- Generator: Adobe Illustrator 24.0.0, SVG Export Plug-In . SVG Version: 6.00 Build 0)  -->
<svg version="1.1" id="レイヤー_1" xmlns="http://www.w3.org/2000/svg" xmlns:xlink="http://www.w3.org/1999/xlink" x="0px"
	 y="0px" viewBox="0 0 1475.3 1475.3" style="enable-background:new 0 0 1475.3 1475.3;" xml:space="preserve">
<style type="text/css">
	.st0{fill:#FF0000;}
	.st1{fill:#0000FF;}
</style>
<g>
	<polygon class="st0" points="709.8,122.8 645,172.5 716.6,208.5 781.4,158.8 	"/>
	<polygon class="st1" points="906.6,62.7 835.5,27 773.4,74.1 844.9,110.1 906.6,62.7 	"/>
	<polygon points="456.7,317.2 391.9,366.9 463.3,402.8 528.1,353.1 	"/>
	<polygon class="st0" points="582.4,221.4 520.3,268.5 591.6,304.4 653.3,257 	"/>
	<polygon points="203.5,512 138.7,561.7 209.7,597.3 274.5,547.6 	"/>
	<polygon points="146.3,646 75.3,610.3 0,667.9 0,1135.1 71.1,1170.8 71.1,703.6 	"/>
	<polygon points="329.2,416.2 267.1,463.3 338,498.9 399.7,451.6 	"/>
	<polygon class="st0" points="781.4,158.8 716.6,208.5 787.7,244.2 852.5,194.5 	"/>
	<polygon class="st1" points="977.7,98.5 906.6,62.7 906.6,62.7 844.9,110.1 916,145.8 977.7,98.5 	"/>
	<polygon points="528.1,353.1 463.3,402.8 534.4,438.5 599.2,388.8 	"/>
	<polygon class="st0" points="653.3,257 591.6,304.4 662.7,340.1 724.4,292.8 	"/>
	<polygon points="274.5,547.6 209.7,597.3 280.8,633.1 345.6,583.3 	"/>
	<polygon points="217.4,681.7 146.3,646 71.1,703.6 71.1,1170.8 142.2,1206.5 142.2,739.4 	"/>
	<polygon points="399.7,451.6 338,498.9 409,534.7 470.8,487.3 	"/>
	<polygon class="st0" points="852.5,194.5 787.7,244.2 858.9,279.9 923.7,230.2 	"/>
	<polygon class="st1" points="1048.8,134.2 977.7,98.5 977.7,98.5 916,145.8 987.1,181.5 1048.8,134.2 	"/>
	<polygon points="599.2,388.8 534.4,438.5 605.6,474.2 670.4,424.5 	"/>
	<polygon class="st0" points="724.4,292.8 662.7,340.1 733.8,375.8 795.5,328.5 	"/>
	<polygon points="345.6,583.3 280.8,633.1 351.9,668.8 416.7,619.1 	"/>
	<polygon points="288.5,717.4 217.4,681.7 142.2,739.4 142.2,1206.5 213.3,1242.3 213.3,775.1 	"/>
	<polygon points="470.8,487.3 409,534.7 480.1,570.4 541.9,523.1 	"/>
	<polygon class="st0" points="923.7,230.2 858.9,279.9 930,315.6 994.8,265.9 	"/>
	<polygon class="st1" points="1119.9,169.9 1048.8,134.2 1048.8,134.2 987.1,181.5 1058.2,217.3 1119.8,170 	"/>
	<polygon points="670.4,424.5 605.6,474.2 676.7,509.9 741.5,460.2 	"/>
	<polygon class="st0" points="795.5,328.5 733.8,375.8 804.9,411.6 866.6,364.2 	"/>
	<polygon points="416.7,619.1 351.9,668.8 423,704.5 487.8,654.8 	"/>
	<polygon points="359.6,753.2 288.5,717.4 213.3,775.1 213.3,1242.3 284.3,1278 284.3,810.9 	"/>
	<polygon points="541.9,523.1 480.1,570.4 551.2,606.2 613,558.8 	"/>
	<polygon class="st0" points="994.8,265.9 930,315.6 1001.1,351.3 1065.9,301.6 	"/>
	<polygon class="st1" points="1191,205.7 1119.9,169.9 1119.8,170 1058.2,217.3 1129.3,253 1190.9,205.7 	"/>
	<polygon points="741.5,460.2 676.7,509.9 747.8,545.6 812.6,495.9 	"/>
	<polygon class="st0" points="866.6,364.2 804.9,411.6 876,447.3 937.7,400 	"/>
	<polygon points="487.8,654.8 423,704.5 494.2,740.2 559,690.5 	"/>
	<polygon points="430.7,788.9 359.6,753.2 284.3,810.9 284.3,1278 355.4,1313.7 355.4,846.6 	"/>
	<polygon points="613,558.8 551.2,606.2 622.3,641.9 684.1,594.5 	"/>
	<polygon class="st0" points="1065.9,301.6 1001.1,351.3 1072.2,387 1137.1,337.3 	"/>
	<polygon class="st1" points="1262.1,241.4 1191,205.7 1190.9,205.7 1129.3,253 1200.3,288.8 1262,241.5 	"/>
	<polygon points="812.6,495.9 747.8,545.6 818.9,581.4 883.8,531.6 	"/>
	<polygon class="st0" points="937.7,400 876,447.3 947,483.1 1008.8,435.7 	"/>
	<polygon points="559,690.5 494.2,740.2 565.3,775.9 630.1,726.2 	"/>
	<polygon points="501.8,824.6 430.7,788.9 355.4,846.6 355.4,1313.7 426.5,1349.4 426.5,882.4 	"/>
	<polygon points="684.1,594.5 622.3,641.9 693.4,677.6 755.2,630.3 	"/>
	<polygon class="st0" points="1137.1,337.3 1072.2,387 1143.4,422.8 1208.2,373 	"/>
	<polygon class="st1" points="1333.3,277.1 1262.1,241.4 1262,241.5 1200.3,288.8 1271.4,324.5 1333.1,277.2 	"/>
	<polygon points="883.8,531.6 818.9,581.4 890.1,617.1 954.9,567.3 	"/>
	<polygon class="st0" points="1008.8,435.7 947,483.1 1018.1,518.8 1079.9,471.4 	"/>
	<polygon points="630.1,726.2 565.3,775.9 636.4,811.6 701.2,761.9 	"/>
	<polygon points="572.9,860.4 501.8,824.6 426.5,882.4 426.5,1349.4 497.6,1385.1 497.6,918.1 	"/>
	<polygon points="755.2,630.3 693.4,677.6 764.5,713.4 826.3,666 	"/>
	<polygon class="st0" points="1208.2,373 1143.4,422.8 1214.5,458.5 1279.3,408.8 	"/>
	<polygon class="st1" points="1404.4,312.9 1333.3,277.1 1333.1,277.2 1271.4,324.5 1342.5,360.3 1404.2,313 	"/>
	<polygon points="954.9,567.3 890.1,617.1 961.2,652.8 1026,603.1 	"/>
	<polygon class="st0" points="1079.9,471.4 1018.1,518.8 1089.2,554.6 1151,507.1 	"/>
	<polygon points="701.2,761.9 636.4,811.6 707.5,847.4 772.4,797.6 	"/>
	<polygon points="644,896.1 572.9,860.4 497.6,918.1 497.6,1385.1 568.7,1420.9 568.7,953.9 	"/>
	<polygon points="826.3,666 764.5,713.4 835.6,749.1 897.4,701.7 	"/>
	<polygon class="st0" points="1285.2,961.2 1350.9,911 1350.9,444.7 1279.3,408.8 1214.5,458.5 1285.2,494 	"/>
	<polygon class="st1" points="1413.8,862.4 1475.3,815.7 1475.3,348.5 1404.4,312.9 1404.2,313 1342.5,360.3 1413.8,396.1 	"/>
	<polygon points="1032.1,1155.6 1097.8,1105.4 1097.8,639.1 1026,603.1 961.2,652.8 1032.1,688.4 	"/>
	<polygon class="st0" points="1160.7,1056.8 1222.2,1010.1 1222.2,542.9 1151,507.1 1089.2,554.6 1160.7,590.5 	"/>
	<polygon points="778.9,1350.4 844.6,1300.2 844.6,833.9 772.4,797.6 707.5,847.4 778.9,883.2 	"/>
	<polygon points="715.8,1398.6 715.8,932.2 644,896.1 568.7,953.9 568.7,1420.9 639.8,1456.6 	"/>
	<polygon points="907.5,1251.6 969,1204.9 969,737.7 897.4,701.7 835.6,749.1 907.5,785.3 	"/>
</g>
</svg>
