<?xml version="1.0" encoding="utf-8"?>
<!-- Generator: Adobe Illustrator 23.1.0, SVG Export Plug-In . SVG Version: 6.00 Build 0)  -->
<svg version="1.1" id="レイヤー_1" xmlns="http://www.w3.org/2000/svg" xmlns:xlink="http://www.w3.org/1999/xlink" x="0px"
	 y="0px" viewBox="0 0 1475.3 1475.3" style="enable-background:new 0 0 1475.3 1475.3;" xml:space="preserve">
<style type="text/css">
	.st0{fill:#FF0000;}
	.st1{fill:#0000FF;}
</style>
<polygon class="st0" points="645,172.5 1285.2,494 1285.2,961.2 1350.9,911 1350.9,444.7 709.8,122.8 "/>
<polygon class="st1" points="835.5,27 773.4,74.1 1413.8,396.1 1413.8,862.4 1475.3,815.7 1475.3,348.5 "/>
<polygon points="391.9,366.9 1032.1,688.4 1032.1,1155.6 1097.8,1105.4 1097.8,639.1 456.7,317.2 "/>
<polygon class="st0" points="582.4,221.4 520.3,268.5 1160.7,590.5 1160.7,1056.8 1222.2,1010.1 1222.2,542.9 "/>
<polygon points="138.7,561.7 778.9,883.2 778.9,1350.4 844.6,1300.2 844.6,833.9 203.5,512 "/>
<polygon points="715.8,932.2 75.3,610.3 0,667.9 0,1135.1 639.8,1456.6 715.8,1398.6 "/>
<polygon points="329.2,416.2 267.1,463.3 907.5,785.3 907.5,1251.6 969,1204.9 969,737.7 "/>
</svg>
